<svg id="visual" viewBox="0 0 900 600" width="900" height="600" xmlns="http://www.w3.org/2000/svg" xmlns:xlink="http://www.w3.org/1999/xlink" version="1.1"><rect x="0" y="0" width="900" height="600" fill="#fff"></rect><defs><linearGradient id="grad1_0" x1="33.3%" y1="100%" x2="100%" y2="0%"><stop offset="20%" stop-color="#ffffff" stop-opacity="1"></stop><stop offset="80%" stop-color="#ffffff" stop-opacity="1"></stop></linearGradient></defs><defs><linearGradient id="grad2_0" x1="0%" y1="100%" x2="66.7%" y2="0%"><stop offset="20%" stop-color="#ffffff" stop-opacity="1"></stop><stop offset="80%" stop-color="#ffffff" stop-opacity="1"></stop></linearGradient></defs><g transform="translate(900, 600)"><path d="M-486.7 0C-464.5 -79.1 -442.2 -158.3 -404.4 -233.5C-366.7 -308.7 -313.4 -380 -243.4 -421.5C-173.4 -463.1 -86.7 -474.9 0 -486.7L0 0Z" fill="#00775d"></path></g><g transform="translate(0, 0)"><path d="M486.7 0C469.6 82.1 452.4 164.2 414 239C375.5 313.8 315.9 381.5 243.4 421.5C170.8 461.6 85.4 474.2 0 486.7L0 0Z" fill="#00775d"></path></g></svg>